<mxfile host="app.diagrams.net" modified="2024-03-10T11:14:13.607Z" agent="Mozilla/5.0 (Macintosh; Intel Mac OS X 10_15_7) AppleWebKit/537.36 (KHTML, like Gecko) Chrome/122.0.0.0 Safari/537.36" etag="Ht4dNSXJbSYqg6K9YmFP" version="24.0.2" type="device">
  <diagram id="R2lEEEUBdFMjLlhIrx00" name="Page-1">
    <mxGraphModel dx="920" dy="757" grid="1" gridSize="10" guides="1" tooltips="1" connect="1" arrows="1" fold="1" page="1" pageScale="1" pageWidth="850" pageHeight="1100" math="0" shadow="0" extFonts="Permanent Marker^https://fonts.googleapis.com/css?family=Permanent+Marker">
      <root>
        <mxCell id="0" />
        <mxCell id="1" parent="0" />
        <mxCell id="UVyW6xEAhAltJ_qeNwZC-4" value="&lt;font style=&quot;font-size: 15px;&quot;&gt;&lt;b&gt;Encomenda&lt;/b&gt;&lt;/font&gt;" style="text;html=1;align=center;verticalAlign=middle;whiteSpace=wrap;rounded=0;" parent="1" vertex="1">
          <mxGeometry x="80" y="50" width="100" height="30" as="geometry" />
        </mxCell>
        <mxCell id="UVyW6xEAhAltJ_qeNwZC-5" value="data" style="rounded=0;whiteSpace=wrap;html=1;" parent="1" vertex="1">
          <mxGeometry x="80" y="80" width="100" height="40" as="geometry" />
        </mxCell>
        <mxCell id="UVyW6xEAhAltJ_qeNwZC-6" value="num_unidade" style="rounded=0;whiteSpace=wrap;html=1;" parent="1" vertex="1">
          <mxGeometry x="180" y="80" width="100" height="40" as="geometry" />
        </mxCell>
        <mxCell id="UVyW6xEAhAltJ_qeNwZC-8" value="&lt;font style=&quot;font-size: 15px;&quot;&gt;&lt;b&gt;Produto&lt;/b&gt;&lt;/font&gt;" style="text;html=1;align=center;verticalAlign=middle;whiteSpace=wrap;rounded=0;" parent="1" vertex="1">
          <mxGeometry x="80" y="180" width="90" height="30" as="geometry" />
        </mxCell>
        <mxCell id="UVyW6xEAhAltJ_qeNwZC-9" value="iva" style="rounded=0;whiteSpace=wrap;html=1;" parent="1" vertex="1">
          <mxGeometry x="80" y="210" width="100" height="40" as="geometry" />
        </mxCell>
        <mxCell id="UVyW6xEAhAltJ_qeNwZC-10" value="nome" style="rounded=0;whiteSpace=wrap;html=1;" parent="1" vertex="1">
          <mxGeometry x="180" y="210" width="100" height="40" as="geometry" />
        </mxCell>
        <mxCell id="UVyW6xEAhAltJ_qeNwZC-11" value="stock" style="rounded=0;whiteSpace=wrap;html=1;" parent="1" vertex="1">
          <mxGeometry x="280" y="210" width="100" height="40" as="geometry" />
        </mxCell>
        <mxCell id="UVyW6xEAhAltJ_qeNwZC-12" value="code&lt;div&gt;(PK)&lt;/div&gt;" style="rounded=0;whiteSpace=wrap;html=1;" parent="1" vertex="1">
          <mxGeometry x="380" y="210" width="100" height="40" as="geometry" />
        </mxCell>
        <mxCell id="UVyW6xEAhAltJ_qeNwZC-14" style="edgeStyle=orthogonalEdgeStyle;rounded=0;orthogonalLoop=1;jettySize=auto;html=1;entryX=0.5;entryY=0;entryDx=0;entryDy=0;" parent="1" source="UVyW6xEAhAltJ_qeNwZC-13" target="UVyW6xEAhAltJ_qeNwZC-12" edge="1">
          <mxGeometry relative="1" as="geometry" />
        </mxCell>
        <mxCell id="UVyW6xEAhAltJ_qeNwZC-13" value="product_code&lt;div&gt;(PK)&lt;/div&gt;" style="rounded=0;whiteSpace=wrap;html=1;" parent="1" vertex="1">
          <mxGeometry x="280" y="80" width="100" height="40" as="geometry" />
        </mxCell>
        <mxCell id="UVyW6xEAhAltJ_qeNwZC-15" value="&lt;font style=&quot;font-size: 15px;&quot;&gt;&lt;b&gt;Fornecedor&lt;/b&gt;&lt;/font&gt;" style="text;html=1;align=center;verticalAlign=middle;whiteSpace=wrap;rounded=0;" parent="1" vertex="1">
          <mxGeometry x="80" y="290" width="100" height="30" as="geometry" />
        </mxCell>
        <mxCell id="UVyW6xEAhAltJ_qeNwZC-16" value="nome" style="rounded=0;whiteSpace=wrap;html=1;" parent="1" vertex="1">
          <mxGeometry x="80" y="320" width="100" height="40" as="geometry" />
        </mxCell>
        <mxCell id="UVyW6xEAhAltJ_qeNwZC-17" value="NIF&lt;div&gt;(PK)&lt;/div&gt;" style="rounded=0;whiteSpace=wrap;html=1;" parent="1" vertex="1">
          <mxGeometry x="180" y="320" width="100" height="40" as="geometry" />
        </mxCell>
        <mxCell id="UVyW6xEAhAltJ_qeNwZC-18" value="addr" style="rounded=0;whiteSpace=wrap;html=1;" parent="1" vertex="1">
          <mxGeometry x="280" y="320" width="100" height="40" as="geometry" />
        </mxCell>
        <mxCell id="UVyW6xEAhAltJ_qeNwZC-19" value="fax" style="rounded=0;whiteSpace=wrap;html=1;" parent="1" vertex="1">
          <mxGeometry x="380" y="320" width="100" height="40" as="geometry" />
        </mxCell>
        <mxCell id="UVyW6xEAhAltJ_qeNwZC-20" value="cond_pagamento" style="rounded=0;whiteSpace=wrap;html=1;" parent="1" vertex="1">
          <mxGeometry x="480" y="320" width="120" height="40" as="geometry" />
        </mxCell>
        <mxCell id="UVyW6xEAhAltJ_qeNwZC-22" style="edgeStyle=orthogonalEdgeStyle;rounded=0;orthogonalLoop=1;jettySize=auto;html=1;exitX=0.5;exitY=1;exitDx=0;exitDy=0;" parent="1" source="UVyW6xEAhAltJ_qeNwZC-21" target="UVyW6xEAhAltJ_qeNwZC-17" edge="1">
          <mxGeometry relative="1" as="geometry">
            <Array as="points">
              <mxPoint x="425" y="140" />
              <mxPoint x="520" y="140" />
              <mxPoint x="520" y="280" />
              <mxPoint x="230" y="280" />
            </Array>
          </mxGeometry>
        </mxCell>
        <mxCell id="UVyW6xEAhAltJ_qeNwZC-21" value="supplier_code&lt;div&gt;(FK)&lt;/div&gt;" style="rounded=0;whiteSpace=wrap;html=1;" parent="1" vertex="1">
          <mxGeometry x="375" y="80" width="100" height="40" as="geometry" />
        </mxCell>
        <mxCell id="UVyW6xEAhAltJ_qeNwZC-23" value="&lt;font style=&quot;font-size: 15px;&quot;&gt;&lt;b&gt;Tipo_Fornecedor&lt;/b&gt;&lt;/font&gt;" style="text;html=1;align=center;verticalAlign=middle;whiteSpace=wrap;rounded=0;" parent="1" vertex="1">
          <mxGeometry x="80" y="400" width="140" height="30" as="geometry" />
        </mxCell>
        <mxCell id="UVyW6xEAhAltJ_qeNwZC-24" value="code&lt;div&gt;(PK)&lt;/div&gt;" style="rounded=0;whiteSpace=wrap;html=1;" parent="1" vertex="1">
          <mxGeometry x="80" y="430" width="100" height="40" as="geometry" />
        </mxCell>
        <mxCell id="UVyW6xEAhAltJ_qeNwZC-25" value="nome" style="rounded=0;whiteSpace=wrap;html=1;" parent="1" vertex="1">
          <mxGeometry x="180" y="430" width="100" height="40" as="geometry" />
        </mxCell>
        <mxCell id="UVyW6xEAhAltJ_qeNwZC-30" style="edgeStyle=orthogonalEdgeStyle;rounded=0;orthogonalLoop=1;jettySize=auto;html=1;" parent="1" source="UVyW6xEAhAltJ_qeNwZC-29" target="UVyW6xEAhAltJ_qeNwZC-24" edge="1">
          <mxGeometry relative="1" as="geometry">
            <Array as="points">
              <mxPoint x="650" y="500" />
              <mxPoint x="130" y="500" />
            </Array>
          </mxGeometry>
        </mxCell>
        <mxCell id="UVyW6xEAhAltJ_qeNwZC-29" value="tipo_fornecedor&lt;div&gt;(FK)&lt;/div&gt;" style="rounded=0;whiteSpace=wrap;html=1;" parent="1" vertex="1">
          <mxGeometry x="600" y="320" width="100" height="40" as="geometry" />
        </mxCell>
      </root>
    </mxGraphModel>
  </diagram>
</mxfile>
